<mxfile host="65bd71144e" modified="2020-12-22T15:34:43.809Z" agent="5.0 (Windows NT 10.0; Win64; x64) AppleWebKit/537.36 (KHTML, like Gecko) Code/1.51.1 Chrome/83.0.4103.122 Electron/9.3.3 Safari/537.36" etag="hwvVPVdA7rTcJq-AaCja" version="13.6.5">
    <diagram id="PSGBPLNP3vqcPFXVVVa6" name="Page-1">
        <mxGraphModel dx="1480" dy="812" grid="1" gridSize="10" guides="0" tooltips="1" connect="1" arrows="1" fold="1" page="1" pageScale="1" pageWidth="1169" pageHeight="827" math="0" shadow="0">
            <root>
                <mxCell id="0"/>
                <mxCell id="1" parent="0"/>
                <mxCell id="UVWAx00YONSHc_Kubo9x-37" value="" style="shape=image;verticalLabelPosition=bottom;labelBackgroundColor=#ffffff;verticalAlign=top;aspect=fixed;imageAspect=0;image=https://www.bicycleretailer.com/sites/default/files/images/article/ESX_34_Short_ENVE_1.jpg;" parent="1" vertex="1">
                    <mxGeometry x="14" y="224" width="14.02" height="10" as="geometry"/>
                </mxCell>
                <mxCell id="UVWAx00YONSHc_Kubo9x-57" value="" style="shape=image;verticalLabelPosition=bottom;labelBackgroundColor=#ffffff;verticalAlign=top;aspect=fixed;imageAspect=0;image=http://www.pixelstalk.net/wp-content/uploads/2016/07/Running-Wallpaper.jpg;" parent="1" vertex="1">
                    <mxGeometry x="20" y="186.85" width="41.23" height="23.15" as="geometry"/>
                </mxCell>
                <UserObject label="" link="https://github.com/orgs/TheFeloDevTeam/projects?query=is%3Aopen+sort%3Aname-asc" id="UVWAx00YONSHc_Kubo9x-58">
                    <mxCell style="shape=image;verticalLabelPosition=bottom;labelBackgroundColor=#ffffff;verticalAlign=top;aspect=fixed;imageAspect=0;image=https://miro.medium.com/max/12000/1*BK9EPE5SkaC9Nt3P-qsXjw.jpeg;" parent="1" vertex="1">
                        <mxGeometry x="370" y="73.37000000000003" width="70" height="46.79" as="geometry"/>
                    </mxCell>
                </UserObject>
                <UserObject label="" link="https://github.com/TheFeloDevTeam" Description="The Team" id="UVWAx00YONSHc_Kubo9x-60">
                    <mxCell style="shape=image;verticalLabelPosition=bottom;labelBackgroundColor=#ffffff;verticalAlign=top;aspect=fixed;imageAspect=0;image=https://assets.entrepreneur.com/content/3x2/2000/20151215195453-business-leader-group-front-leadership-team-professionals-businesspeople.jpeg;" parent="1" vertex="1">
                        <mxGeometry x="60" y="30" width="59.94" height="40" as="geometry"/>
                    </mxCell>
                </UserObject>
                <UserObject label="" link="https://thefelodevteam.github.io/FeloFamilySite/" id="UVWAx00YONSHc_Kubo9x-61">
                    <mxCell style="shape=image;verticalLabelPosition=bottom;labelBackgroundColor=#ffffff;verticalAlign=top;aspect=fixed;imageAspect=0;image=http://www.prophethacker.com/wp-content/uploads/2015/05/Website-Image-trans-cut.jpg;" parent="1" vertex="1">
                        <mxGeometry x="880" y="71.55000000000001" width="85.35" height="48.61" as="geometry"/>
                    </mxCell>
                </UserObject>
                <UserObject label="" link="https://thefelodevteam.github.io/TheBlogOfFeloFamily/" id="UVWAx00YONSHc_Kubo9x-62">
                    <mxCell style="shape=image;verticalLabelPosition=bottom;labelBackgroundColor=#ffffff;verticalAlign=top;aspect=fixed;imageAspect=0;image=https://www.teachertoolkit.co.uk/wp-content/uploads/2016/08/shutterstock_93782158.jpg;" parent="1" vertex="1">
                        <mxGeometry x="1060" y="68.01" width="60" height="52.15" as="geometry"/>
                    </mxCell>
                </UserObject>
                <mxCell id="UVWAx00YONSHc_Kubo9x-74" value="" style="shape=table;html=1;whiteSpace=wrap;startSize=0;container=1;collapsible=0;childLayout=tableLayout;fontSize=10;spacing=4;" parent="1" vertex="1">
                    <mxGeometry x="1010" y="140" width="150" height="120" as="geometry"/>
                </mxCell>
                <mxCell id="UVWAx00YONSHc_Kubo9x-79" style="shape=partialRectangle;html=1;whiteSpace=wrap;collapsible=0;dropTarget=0;pointerEvents=0;fillColor=none;top=0;left=0;bottom=0;right=0;points=[[0,0.5],[1,0.5]];portConstraint=eastwest;fontSize=10;" parent="UVWAx00YONSHc_Kubo9x-74" vertex="1">
                    <mxGeometry width="150" height="40" as="geometry"/>
                </mxCell>
                <UserObject label="Issues" link="https://github.com/TheFeloDevTeam/TheBlogOfFeloFamily/issues" id="UVWAx00YONSHc_Kubo9x-80">
                    <mxCell style="shape=partialRectangle;html=1;whiteSpace=wrap;connectable=0;fillColor=none;top=0;left=0;bottom=0;right=0;overflow=hidden;fontSize=10;" parent="UVWAx00YONSHc_Kubo9x-79" vertex="1">
                        <mxGeometry width="150" height="40" as="geometry"/>
                    </mxCell>
                </UserObject>
                <mxCell id="UVWAx00YONSHc_Kubo9x-75" value="" style="shape=partialRectangle;html=1;whiteSpace=wrap;collapsible=0;dropTarget=0;pointerEvents=0;fillColor=none;top=0;left=0;bottom=0;right=0;points=[[0,0.5],[1,0.5]];portConstraint=eastwest;fontSize=10;" parent="UVWAx00YONSHc_Kubo9x-74" vertex="1">
                    <mxGeometry y="40" width="150" height="40" as="geometry"/>
                </mxCell>
                <UserObject label="Labels" link="https://github.com/TheFeloDevTeam/TheBlogOfFeloFamily/labels" id="UVWAx00YONSHc_Kubo9x-76">
                    <mxCell style="shape=partialRectangle;html=1;whiteSpace=wrap;connectable=0;fillColor=none;top=0;left=0;bottom=0;right=0;overflow=hidden;fontSize=10;" parent="UVWAx00YONSHc_Kubo9x-75" vertex="1">
                        <mxGeometry width="150" height="40" as="geometry"/>
                    </mxCell>
                </UserObject>
                <mxCell id="UVWAx00YONSHc_Kubo9x-77" style="shape=partialRectangle;html=1;whiteSpace=wrap;collapsible=0;dropTarget=0;pointerEvents=0;fillColor=none;top=0;left=0;bottom=0;right=0;points=[[0,0.5],[1,0.5]];portConstraint=eastwest;fontSize=10;" parent="UVWAx00YONSHc_Kubo9x-74" vertex="1">
                    <mxGeometry y="80" width="150" height="40" as="geometry"/>
                </mxCell>
                <UserObject label="Workflow configuration" link="https://github.com/TheFeloDevTeam/TheBlogOfFeloFamily/tree/master/.github/workflows" id="UVWAx00YONSHc_Kubo9x-78">
                    <mxCell style="shape=partialRectangle;html=1;whiteSpace=wrap;connectable=0;fillColor=none;top=0;left=0;bottom=0;right=0;overflow=hidden;fontSize=10;" parent="UVWAx00YONSHc_Kubo9x-77" vertex="1">
                        <mxGeometry width="150" height="40" as="geometry"/>
                    </mxCell>
                </UserObject>
                <mxCell id="UVWAx00YONSHc_Kubo9x-39" value="" style="shape=table;html=1;whiteSpace=wrap;startSize=0;container=1;collapsible=0;childLayout=tableLayout;fontSize=10;spacing=4;" parent="1" vertex="1">
                    <mxGeometry x="850" y="140" width="150" height="120" as="geometry"/>
                </mxCell>
                <mxCell id="UVWAx00YONSHc_Kubo9x-72" style="shape=partialRectangle;html=1;whiteSpace=wrap;collapsible=0;dropTarget=0;pointerEvents=0;fillColor=none;top=0;left=0;bottom=0;right=0;points=[[0,0.5],[1,0.5]];portConstraint=eastwest;fontSize=10;" parent="UVWAx00YONSHc_Kubo9x-39" vertex="1">
                    <mxGeometry width="150" height="40" as="geometry"/>
                </mxCell>
                <UserObject label="Issues" link="https://github.com/TheFeloDevTeam/FeloFamilySite/issues" id="UVWAx00YONSHc_Kubo9x-73">
                    <mxCell style="shape=partialRectangle;html=1;whiteSpace=wrap;connectable=0;fillColor=none;top=0;left=0;bottom=0;right=0;overflow=hidden;fontSize=10;" parent="UVWAx00YONSHc_Kubo9x-72" vertex="1">
                        <mxGeometry width="150" height="40" as="geometry"/>
                    </mxCell>
                </UserObject>
                <mxCell id="UVWAx00YONSHc_Kubo9x-48" value="" style="shape=partialRectangle;html=1;whiteSpace=wrap;collapsible=0;dropTarget=0;pointerEvents=0;fillColor=none;top=0;left=0;bottom=0;right=0;points=[[0,0.5],[1,0.5]];portConstraint=eastwest;fontSize=10;" parent="UVWAx00YONSHc_Kubo9x-39" vertex="1">
                    <mxGeometry y="40" width="150" height="40" as="geometry"/>
                </mxCell>
                <UserObject label="Labels" link="https://github.com/TheFeloDevTeam/FeloFamilySite/labels" id="UVWAx00YONSHc_Kubo9x-49">
                    <mxCell style="shape=partialRectangle;html=1;whiteSpace=wrap;connectable=0;fillColor=none;top=0;left=0;bottom=0;right=0;overflow=hidden;fontSize=10;" parent="UVWAx00YONSHc_Kubo9x-48" vertex="1">
                        <mxGeometry width="150" height="40" as="geometry"/>
                    </mxCell>
                </UserObject>
                <mxCell id="UVWAx00YONSHc_Kubo9x-52" style="shape=partialRectangle;html=1;whiteSpace=wrap;collapsible=0;dropTarget=0;pointerEvents=0;fillColor=none;top=0;left=0;bottom=0;right=0;points=[[0,0.5],[1,0.5]];portConstraint=eastwest;fontSize=10;" parent="UVWAx00YONSHc_Kubo9x-39" vertex="1">
                    <mxGeometry y="80" width="150" height="40" as="geometry"/>
                </mxCell>
                <UserObject label="Workflow configuration" link="https://github.com/TheFeloDevTeam/FeloFamilySite/tree/master/.github/workflows" id="UVWAx00YONSHc_Kubo9x-53">
                    <mxCell style="shape=partialRectangle;html=1;whiteSpace=wrap;connectable=0;fillColor=none;top=0;left=0;bottom=0;right=0;overflow=hidden;fontSize=10;" parent="UVWAx00YONSHc_Kubo9x-52" vertex="1">
                        <mxGeometry width="150" height="40" as="geometry"/>
                    </mxCell>
                </UserObject>
                <mxCell id="f8MAgHsYSVisA1iL0quK-7" value="" style="shape=table;whiteSpace=wrap;startSize=0;container=1;collapsible=0;childLayout=tableLayout;spacing=4;html=1;fontSize=12;" parent="1" vertex="1">
                    <mxGeometry x="10" y="140" width="150" height="280" as="geometry"/>
                </mxCell>
                <mxCell id="f8MAgHsYSVisA1iL0quK-8" value="" style="shape=partialRectangle;html=1;whiteSpace=wrap;collapsible=0;dropTarget=0;pointerEvents=0;fillColor=none;top=0;left=0;bottom=0;right=0;points=[[0,0.5],[1,0.5]];portConstraint=eastwest;" parent="f8MAgHsYSVisA1iL0quK-7" vertex="1">
                    <mxGeometry width="150" height="40" as="geometry"/>
                </mxCell>
                <UserObject label="Sport" link="https://github.com/orgs/TheFeloDevTeam/projects/34" id="f8MAgHsYSVisA1iL0quK-9">
                    <mxCell style="shape=partialRectangle;html=1;whiteSpace=wrap;connectable=0;fillColor=none;top=0;left=0;bottom=0;right=0;overflow=hidden;spacing=4;fontSize=10;" parent="f8MAgHsYSVisA1iL0quK-8" vertex="1">
                        <mxGeometry width="150" height="40" as="geometry"/>
                    </mxCell>
                </UserObject>
                <mxCell id="f8MAgHsYSVisA1iL0quK-12" value="" style="shape=partialRectangle;html=1;whiteSpace=wrap;collapsible=0;dropTarget=0;pointerEvents=0;fillColor=none;top=0;left=0;bottom=0;right=0;points=[[0,0.5],[1,0.5]];portConstraint=eastwest;" parent="f8MAgHsYSVisA1iL0quK-7" vertex="1">
                    <mxGeometry y="40" width="150" height="40" as="geometry"/>
                </mxCell>
                <UserObject label="CAP" link="https://github.com/orgs/TheFeloDevTeam/projects/19" id="f8MAgHsYSVisA1iL0quK-13">
                    <mxCell style="shape=partialRectangle;html=1;whiteSpace=wrap;connectable=0;fillColor=none;top=0;left=0;bottom=0;right=0;overflow=hidden;spacing=4;fontSize=10;" parent="f8MAgHsYSVisA1iL0quK-12" vertex="1">
                        <mxGeometry width="150" height="40" as="geometry"/>
                    </mxCell>
                </UserObject>
                <mxCell id="f8MAgHsYSVisA1iL0quK-16" value="" style="shape=partialRectangle;html=1;whiteSpace=wrap;collapsible=0;dropTarget=0;pointerEvents=0;fillColor=none;top=0;left=0;bottom=0;right=0;points=[[0,0.5],[1,0.5]];portConstraint=eastwest;" parent="f8MAgHsYSVisA1iL0quK-7" vertex="1">
                    <mxGeometry y="80" width="150" height="40" as="geometry"/>
                </mxCell>
                <UserObject label="Vélo" link="https://github.com/orgs/TheFeloDevTeam/projects/20" id="f8MAgHsYSVisA1iL0quK-17">
                    <mxCell style="shape=partialRectangle;html=1;whiteSpace=wrap;connectable=0;fillColor=none;top=0;left=0;bottom=0;right=0;overflow=hidden;spacing=4;fontSize=10;" parent="f8MAgHsYSVisA1iL0quK-16" vertex="1">
                        <mxGeometry width="150" height="40" as="geometry"/>
                    </mxCell>
                </UserObject>
                <mxCell id="f8MAgHsYSVisA1iL0quK-20" style="shape=partialRectangle;html=1;whiteSpace=wrap;collapsible=0;dropTarget=0;pointerEvents=0;fillColor=none;top=0;left=0;bottom=0;right=0;points=[[0,0.5],[1,0.5]];portConstraint=eastwest;" parent="f8MAgHsYSVisA1iL0quK-7" vertex="1">
                    <mxGeometry y="120" width="150" height="40" as="geometry"/>
                </mxCell>
                <UserObject label="PPG" link="https://github.com/orgs/TheFeloDevTeam/projects/23" id="f8MAgHsYSVisA1iL0quK-21">
                    <mxCell style="shape=partialRectangle;html=1;whiteSpace=wrap;connectable=0;fillColor=none;top=0;left=0;bottom=0;right=0;overflow=hidden;spacing=4;fontSize=10;" parent="f8MAgHsYSVisA1iL0quK-20" vertex="1">
                        <mxGeometry width="150" height="40" as="geometry"/>
                    </mxCell>
                </UserObject>
                <mxCell id="f8MAgHsYSVisA1iL0quK-22" style="shape=partialRectangle;html=1;whiteSpace=wrap;collapsible=0;dropTarget=0;pointerEvents=0;fillColor=none;top=0;left=0;bottom=0;right=0;points=[[0,0.5],[1,0.5]];portConstraint=eastwest;" parent="f8MAgHsYSVisA1iL0quK-7" vertex="1">
                    <mxGeometry y="160" width="150" height="40" as="geometry"/>
                </mxCell>
                <UserObject label="Assouplissement &amp;amp; étirements" link="https://github.com/orgs/TheFeloDevTeam/projects/25" id="f8MAgHsYSVisA1iL0quK-23">
                    <mxCell style="shape=partialRectangle;html=1;whiteSpace=wrap;connectable=0;fillColor=none;top=0;left=0;bottom=0;right=0;overflow=hidden;spacing=4;fontSize=10;" parent="f8MAgHsYSVisA1iL0quK-22" vertex="1">
                        <mxGeometry width="150" height="40" as="geometry"/>
                    </mxCell>
                </UserObject>
                <mxCell id="f8MAgHsYSVisA1iL0quK-24" style="shape=partialRectangle;html=1;whiteSpace=wrap;collapsible=0;dropTarget=0;pointerEvents=0;fillColor=none;top=0;left=0;bottom=0;right=0;points=[[0,0.5],[1,0.5]];portConstraint=eastwest;" parent="f8MAgHsYSVisA1iL0quK-7" vertex="1">
                    <mxGeometry y="200" width="150" height="40" as="geometry"/>
                </mxCell>
                <UserObject label="Anatomie" link="https://github.com/orgs/TheFeloDevTeam/projects/35" id="f8MAgHsYSVisA1iL0quK-25">
                    <mxCell style="shape=partialRectangle;html=1;whiteSpace=wrap;connectable=0;fillColor=none;top=0;left=0;bottom=0;right=0;overflow=hidden;spacing=4;fontSize=10;" parent="f8MAgHsYSVisA1iL0quK-24" vertex="1">
                        <mxGeometry width="150" height="40" as="geometry"/>
                    </mxCell>
                </UserObject>
                <mxCell id="f8MAgHsYSVisA1iL0quK-26" style="shape=partialRectangle;html=1;whiteSpace=wrap;collapsible=0;dropTarget=0;pointerEvents=0;fillColor=none;top=0;left=0;bottom=0;right=0;points=[[0,0.5],[1,0.5]];portConstraint=eastwest;" parent="f8MAgHsYSVisA1iL0quK-7" vertex="1">
                    <mxGeometry y="240" width="150" height="40" as="geometry"/>
                </mxCell>
                <UserObject label="Nutrition" link="https://github.com/orgs/TheFeloDevTeam/projects/21" id="f8MAgHsYSVisA1iL0quK-27">
                    <mxCell style="shape=partialRectangle;html=1;whiteSpace=wrap;connectable=0;fillColor=none;top=0;left=0;bottom=0;right=0;overflow=hidden;spacing=4;fontSize=10;" parent="f8MAgHsYSVisA1iL0quK-26" vertex="1">
                        <mxGeometry width="150" height="40" as="geometry"/>
                    </mxCell>
                </UserObject>
                <mxCell id="UVWAx00YONSHc_Kubo9x-1" value="" style="shape=table;html=1;whiteSpace=wrap;startSize=0;container=1;collapsible=0;childLayout=tableLayout;spacing=4;fontSize=10;" parent="1" vertex="1">
                    <mxGeometry x="170" y="140" width="150" height="160" as="geometry"/>
                </mxCell>
                <mxCell id="UVWAx00YONSHc_Kubo9x-18" style="shape=partialRectangle;html=1;whiteSpace=wrap;collapsible=0;dropTarget=0;pointerEvents=0;fillColor=none;top=0;left=0;bottom=0;right=0;points=[[0,0.5],[1,0.5]];portConstraint=eastwest;spacing=4;fontSize=10;" parent="UVWAx00YONSHc_Kubo9x-1" vertex="1">
                    <mxGeometry width="150" height="40" as="geometry"/>
                </mxCell>
                <UserObject label="Architecture" link="https://github.com/orgs/TheFeloDevTeam/projects/18" id="UVWAx00YONSHc_Kubo9x-19">
                    <mxCell style="shape=partialRectangle;html=1;whiteSpace=wrap;connectable=0;fillColor=none;top=0;left=0;bottom=0;right=0;overflow=hidden;spacing=4;fontSize=10;" parent="UVWAx00YONSHc_Kubo9x-18" vertex="1">
                        <mxGeometry width="150" height="40" as="geometry"/>
                    </mxCell>
                </UserObject>
                <mxCell id="UVWAx00YONSHc_Kubo9x-129" style="shape=partialRectangle;html=1;whiteSpace=wrap;collapsible=0;dropTarget=0;pointerEvents=0;fillColor=none;top=0;left=0;bottom=0;right=0;points=[[0,0.5],[1,0.5]];portConstraint=eastwest;spacing=4;fontSize=10;" parent="UVWAx00YONSHc_Kubo9x-1" vertex="1">
                    <mxGeometry y="40" width="150" height="40" as="geometry"/>
                </mxCell>
                <UserObject label="Architecture data" link="https://github.com/orgs/TheFeloDevTeam/projects/39" id="UVWAx00YONSHc_Kubo9x-130">
                    <mxCell style="shape=partialRectangle;html=1;whiteSpace=wrap;connectable=0;fillColor=none;top=0;left=0;bottom=0;right=0;overflow=hidden;spacing=4;fontSize=10;" parent="UVWAx00YONSHc_Kubo9x-129" vertex="1">
                        <mxGeometry width="150" height="40" as="geometry"/>
                    </mxCell>
                </UserObject>
                <mxCell id="UVWAx00YONSHc_Kubo9x-16" style="shape=partialRectangle;html=1;whiteSpace=wrap;collapsible=0;dropTarget=0;pointerEvents=0;fillColor=none;top=0;left=0;bottom=0;right=0;points=[[0,0.5],[1,0.5]];portConstraint=eastwest;spacing=4;fontSize=10;" parent="UVWAx00YONSHc_Kubo9x-1" vertex="1">
                    <mxGeometry y="80" width="150" height="40" as="geometry"/>
                </mxCell>
                <UserObject label="Architecture sécurité" link="https://github.com/orgs/TheFeloDevTeam/projects/38" id="UVWAx00YONSHc_Kubo9x-17">
                    <mxCell style="shape=partialRectangle;html=1;whiteSpace=wrap;connectable=0;fillColor=none;top=0;left=0;bottom=0;right=0;overflow=hidden;spacing=4;fontSize=10;" parent="UVWAx00YONSHc_Kubo9x-16" vertex="1">
                        <mxGeometry width="150" height="40" as="geometry"/>
                    </mxCell>
                </UserObject>
                <mxCell id="UVWAx00YONSHc_Kubo9x-2" value="" style="shape=partialRectangle;html=1;whiteSpace=wrap;collapsible=0;dropTarget=0;pointerEvents=0;fillColor=none;top=0;left=0;bottom=0;right=0;points=[[0,0.5],[1,0.5]];portConstraint=eastwest;spacing=4;fontSize=10;" parent="UVWAx00YONSHc_Kubo9x-1" vertex="1">
                    <mxGeometry y="120" width="150" height="40" as="geometry"/>
                </mxCell>
                <UserObject label="Banque" link="https://github.com/orgs/TheFeloDevTeam/projects/29" id="UVWAx00YONSHc_Kubo9x-3">
                    <mxCell style="shape=partialRectangle;html=1;whiteSpace=wrap;connectable=0;fillColor=none;top=0;left=0;bottom=0;right=0;overflow=hidden;spacing=4;fontSize=10;" parent="UVWAx00YONSHc_Kubo9x-2" vertex="1">
                        <mxGeometry width="150" height="40" as="geometry"/>
                    </mxCell>
                </UserObject>
                <mxCell id="UVWAx00YONSHc_Kubo9x-118" value="" style="shape=table;html=1;whiteSpace=wrap;startSize=0;container=1;collapsible=0;childLayout=tableLayout;spacing=4;fontSize=10;" parent="1" vertex="1">
                    <mxGeometry x="330" y="140" width="150" height="120" as="geometry"/>
                </mxCell>
                <mxCell id="UVWAx00YONSHc_Kubo9x-119" style="shape=partialRectangle;html=1;whiteSpace=wrap;collapsible=0;dropTarget=0;pointerEvents=0;fillColor=none;top=0;left=0;bottom=0;right=0;points=[[0,0.5],[1,0.5]];portConstraint=eastwest;spacing=4;fontSize=10;" parent="UVWAx00YONSHc_Kubo9x-118" vertex="1">
                    <mxGeometry width="150" height="40" as="geometry"/>
                </mxCell>
                <UserObject label="Compétences professionnelles" link="https://github.com/orgs/TheFeloDevTeam/projects/31" id="UVWAx00YONSHc_Kubo9x-120">
                    <mxCell style="shape=partialRectangle;html=1;whiteSpace=wrap;connectable=0;fillColor=none;top=0;left=0;bottom=0;right=0;overflow=hidden;spacing=4;fontSize=10;" parent="UVWAx00YONSHc_Kubo9x-119" vertex="1">
                        <mxGeometry width="150" height="40" as="geometry"/>
                    </mxCell>
                </UserObject>
                <mxCell id="UVWAx00YONSHc_Kubo9x-123" style="shape=partialRectangle;html=1;whiteSpace=wrap;collapsible=0;dropTarget=0;pointerEvents=0;fillColor=none;top=0;left=0;bottom=0;right=0;points=[[0,0.5],[1,0.5]];portConstraint=eastwest;spacing=4;fontSize=10;" parent="UVWAx00YONSHc_Kubo9x-118" vertex="1">
                    <mxGeometry y="40" width="150" height="40" as="geometry"/>
                </mxCell>
                <UserObject label="Management" link="https://github.com/orgs/TheFeloDevTeam/projects/30" id="UVWAx00YONSHc_Kubo9x-124">
                    <mxCell style="shape=partialRectangle;html=1;whiteSpace=wrap;connectable=0;fillColor=none;top=0;left=0;bottom=0;right=0;overflow=hidden;spacing=4;fontSize=10;" parent="UVWAx00YONSHc_Kubo9x-123" vertex="1">
                        <mxGeometry width="150" height="40" as="geometry"/>
                    </mxCell>
                </UserObject>
                <mxCell id="UVWAx00YONSHc_Kubo9x-125" style="shape=partialRectangle;html=1;whiteSpace=wrap;collapsible=0;dropTarget=0;pointerEvents=0;fillColor=none;top=0;left=0;bottom=0;right=0;points=[[0,0.5],[1,0.5]];portConstraint=eastwest;spacing=4;fontSize=10;" parent="UVWAx00YONSHc_Kubo9x-118" vertex="1">
                    <mxGeometry y="80" width="150" height="40" as="geometry"/>
                </mxCell>
                <UserObject label="Méthodes &amp;amp; Bonnes pratiques" link="https://github.com/orgs/TheFeloDevTeam/projects/27" id="UVWAx00YONSHc_Kubo9x-126">
                    <mxCell style="shape=partialRectangle;html=1;whiteSpace=wrap;connectable=0;fillColor=none;top=0;left=0;bottom=0;right=0;overflow=hidden;spacing=4;fontSize=10;" parent="UVWAx00YONSHc_Kubo9x-125" vertex="1">
                        <mxGeometry width="150" height="40" as="geometry"/>
                    </mxCell>
                </UserObject>
                <mxCell id="UVWAx00YONSHc_Kubo9x-22" value="" style="shape=table;html=1;whiteSpace=wrap;startSize=0;container=1;collapsible=0;childLayout=tableLayout;fontSize=10;spacing=4;" parent="1" vertex="1">
                    <mxGeometry x="490" y="140" width="150" height="80" as="geometry"/>
                </mxCell>
                <mxCell id="UVWAx00YONSHc_Kubo9x-81" style="shape=partialRectangle;html=1;whiteSpace=wrap;collapsible=0;dropTarget=0;pointerEvents=0;fillColor=none;top=0;left=0;bottom=0;right=0;points=[[0,0.5],[1,0.5]];portConstraint=eastwest;fontSize=10;spacing=4;" parent="UVWAx00YONSHc_Kubo9x-22" vertex="1">
                    <mxGeometry width="150" height="40" as="geometry"/>
                </mxCell>
                <UserObject label="My Workspace" link="https://github.com/orgs/TheFeloDevTeam/projects/22" id="UVWAx00YONSHc_Kubo9x-82">
                    <mxCell style="shape=partialRectangle;html=1;whiteSpace=wrap;connectable=0;fillColor=none;top=0;left=0;bottom=0;right=0;overflow=hidden;fontSize=10;spacing=4;" parent="UVWAx00YONSHc_Kubo9x-81" vertex="1">
                        <mxGeometry width="150" height="40" as="geometry"/>
                    </mxCell>
                </UserObject>
                <mxCell id="UVWAx00YONSHc_Kubo9x-83" style="shape=partialRectangle;html=1;whiteSpace=wrap;collapsible=0;dropTarget=0;pointerEvents=0;fillColor=none;top=0;left=0;bottom=0;right=0;points=[[0,0.5],[1,0.5]];portConstraint=eastwest;fontSize=10;spacing=4;" parent="UVWAx00YONSHc_Kubo9x-22" vertex="1">
                    <mxGeometry y="40" width="150" height="40" as="geometry"/>
                </mxCell>
                <UserObject label="Développement du site et du blog" link="https://github.com/orgs/TheFeloDevTeam/projects/7" id="UVWAx00YONSHc_Kubo9x-84">
                    <mxCell style="shape=partialRectangle;connectable=0;fillColor=none;top=0;left=0;bottom=0;right=0;overflow=hidden;fontSize=10;spacing=4;whiteSpace=wrap;html=1;" parent="UVWAx00YONSHc_Kubo9x-83" vertex="1">
                        <mxGeometry width="150" height="40" as="geometry"/>
                    </mxCell>
                </UserObject>
                <mxCell id="UVWAx00YONSHc_Kubo9x-105" value="" style="shape=table;html=1;whiteSpace=wrap;startSize=0;container=1;collapsible=0;childLayout=tableLayout;fontSize=10;spacing=4;" parent="1" vertex="1">
                    <mxGeometry x="650" y="140" width="150" height="240" as="geometry"/>
                </mxCell>
                <mxCell id="UVWAx00YONSHc_Kubo9x-106" value="" style="shape=partialRectangle;html=1;whiteSpace=wrap;collapsible=0;dropTarget=0;pointerEvents=0;fillColor=none;top=0;left=0;bottom=0;right=0;points=[[0,0.5],[1,0.5]];portConstraint=eastwest;fontSize=10;spacing=4;" parent="UVWAx00YONSHc_Kubo9x-105" vertex="1">
                    <mxGeometry width="150" height="40" as="geometry"/>
                </mxCell>
                <UserObject label="Recettes" link="https://github.com/orgs/TheFeloDevTeam/projects/13" id="UVWAx00YONSHc_Kubo9x-107">
                    <mxCell style="shape=partialRectangle;html=1;whiteSpace=wrap;connectable=0;fillColor=none;top=0;left=0;bottom=0;right=0;overflow=hidden;fontSize=10;spacing=4;" parent="UVWAx00YONSHc_Kubo9x-106" vertex="1">
                        <mxGeometry width="150" height="40" as="geometry"/>
                    </mxCell>
                </UserObject>
                <mxCell id="UVWAx00YONSHc_Kubo9x-108" value="" style="shape=partialRectangle;html=1;whiteSpace=wrap;collapsible=0;dropTarget=0;pointerEvents=0;fillColor=none;top=0;left=0;bottom=0;right=0;points=[[0,0.5],[1,0.5]];portConstraint=eastwest;fontSize=10;spacing=4;" parent="UVWAx00YONSHc_Kubo9x-105" vertex="1">
                    <mxGeometry y="40" width="150" height="40" as="geometry"/>
                </mxCell>
                <UserObject label="Maison" link="https://github.com/orgs/TheFeloDevTeam/projects/26" id="UVWAx00YONSHc_Kubo9x-109">
                    <mxCell style="shape=partialRectangle;html=1;whiteSpace=wrap;connectable=0;fillColor=none;top=0;left=0;bottom=0;right=0;overflow=hidden;fontSize=10;spacing=4;" parent="UVWAx00YONSHc_Kubo9x-108" vertex="1">
                        <mxGeometry width="150" height="40" as="geometry"/>
                    </mxCell>
                </UserObject>
                <mxCell id="UVWAx00YONSHc_Kubo9x-110" value="" style="shape=partialRectangle;html=1;whiteSpace=wrap;collapsible=0;dropTarget=0;pointerEvents=0;fillColor=none;top=0;left=0;bottom=0;right=0;points=[[0,0.5],[1,0.5]];portConstraint=eastwest;fontSize=10;spacing=4;" parent="UVWAx00YONSHc_Kubo9x-105" vertex="1">
                    <mxGeometry y="80" width="150" height="40" as="geometry"/>
                </mxCell>
                <UserObject label="Pensées" link="https://github.com/orgs/TheFeloDevTeam/projects/37" id="UVWAx00YONSHc_Kubo9x-111">
                    <mxCell style="shape=partialRectangle;html=1;whiteSpace=wrap;connectable=0;fillColor=none;top=0;left=0;bottom=0;right=0;overflow=hidden;fontSize=10;spacing=4;" parent="UVWAx00YONSHc_Kubo9x-110" vertex="1">
                        <mxGeometry width="150" height="40" as="geometry"/>
                    </mxCell>
                </UserObject>
                <mxCell id="UVWAx00YONSHc_Kubo9x-112" style="shape=partialRectangle;html=1;whiteSpace=wrap;collapsible=0;dropTarget=0;pointerEvents=0;fillColor=none;top=0;left=0;bottom=0;right=0;points=[[0,0.5],[1,0.5]];portConstraint=eastwest;fontSize=10;spacing=4;" parent="UVWAx00YONSHc_Kubo9x-105" vertex="1">
                    <mxGeometry y="120" width="150" height="40" as="geometry"/>
                </mxCell>
                <UserObject label="Priv" link="https://github.com/orgs/TheFeloDevTeam/projects/36" id="UVWAx00YONSHc_Kubo9x-113">
                    <mxCell style="shape=partialRectangle;html=1;whiteSpace=wrap;connectable=0;fillColor=none;top=0;left=0;bottom=0;right=0;overflow=hidden;fontSize=10;spacing=4;" parent="UVWAx00YONSHc_Kubo9x-112" vertex="1">
                        <mxGeometry width="150" height="40" as="geometry"/>
                    </mxCell>
                </UserObject>
                <mxCell id="UVWAx00YONSHc_Kubo9x-131" style="shape=partialRectangle;html=1;whiteSpace=wrap;collapsible=0;dropTarget=0;pointerEvents=0;fillColor=none;top=0;left=0;bottom=0;right=0;points=[[0,0.5],[1,0.5]];portConstraint=eastwest;fontSize=10;spacing=4;" parent="UVWAx00YONSHc_Kubo9x-105" vertex="1">
                    <mxGeometry y="160" width="150" height="40" as="geometry"/>
                </mxCell>
                <UserObject label="Epics" link="https://github.com/orgs/TheFeloDevTeam/projects/15" id="UVWAx00YONSHc_Kubo9x-132">
                    <mxCell style="shape=partialRectangle;html=1;whiteSpace=wrap;connectable=0;fillColor=none;top=0;left=0;bottom=0;right=0;overflow=hidden;fontSize=10;spacing=4;" parent="UVWAx00YONSHc_Kubo9x-131" vertex="1">
                        <mxGeometry width="150" height="40" as="geometry"/>
                    </mxCell>
                </UserObject>
                <mxCell id="2" style="shape=partialRectangle;html=1;whiteSpace=wrap;collapsible=0;dropTarget=0;pointerEvents=0;fillColor=none;top=0;left=0;bottom=0;right=0;points=[[0,0.5],[1,0.5]];portConstraint=eastwest;fontSize=10;spacing=4;" vertex="1" parent="UVWAx00YONSHc_Kubo9x-105">
                    <mxGeometry y="200" width="150" height="40" as="geometry"/>
                </mxCell>
                <UserObject label="Vidéos" link="https://github.com/orgs/TheFeloDevTeam/projects/33" id="3">
                    <mxCell style="shape=partialRectangle;html=1;whiteSpace=wrap;connectable=0;fillColor=none;top=0;left=0;bottom=0;right=0;overflow=hidden;fontSize=10;spacing=4;" vertex="1" parent="2">
                        <mxGeometry width="150" height="40" as="geometry"/>
                    </mxCell>
                </UserObject>
            </root>
        </mxGraphModel>
    </diagram>
</mxfile>